<svg width="382" height="353" viewBox="0 0 382 353" fill="none" xmlns="http://www.w3.org/2000/svg">
<rect width="378.141" height="347.914" rx="102" transform="matrix(0.999956 0.00918148 -0.00829424 0.999963 3.23779 0.748047)" fill="#327FF3"/>
<path d="M191.097 256.15V228.327V87.4052V53.8006L201.785 53.7988C201.785 53.7988 201.427 62.471 202.144 66.0844C202.86 69.6977 241.978 74.1824 249.803 94.6319C254.79 107.665 249.803 130.404 249.803 130.404C249.803 130.404 247.864 109.249 239.411 100.052C230.329 90.1707 207.58 87.4052 207.58 87.4052L207.58 256.15C207.58 256.15 206.863 281.806 172.821 299.872C138.779 317.939 116.203 284.696 140.929 256.15C165.654 227.605 191.097 256.15 191.097 256.15Z" fill="white"/>
</svg>
