<svg width="382" height="353" viewBox="0 0 382 353" fill="none" xmlns="http://www.w3.org/2000/svg">
<rect width="378.141" height="347.914" rx="102" transform="matrix(0.999956 0.00918148 -0.00829424 0.999963 3.6546 0.748047)" fill="#327FF3"/>
<path d="M133.887 244.323V216.561V75.9473H150.227L150.227 244.323C150.227 244.323 149.516 269.922 115.77 287.949C82.0231 305.976 59.6439 272.806 84.1545 244.323C108.665 215.84 133.887 244.323 133.887 244.323Z" fill="white"/>
<path d="M272.705 244.323V216.561V75.9473H289.313L289.313 244.323C289.313 244.323 288.591 269.922 254.291 287.949C219.991 305.976 197.245 272.806 222.158 244.323C247.07 215.84 272.705 244.323 272.705 244.323Z" fill="white"/>
<path d="M289.315 78.4716H133.939V60.7988H289.315V78.4716Z" fill="white"/>
</svg>
