<svg width="382" height="353" viewBox="0 0 382 353" fill="none" xmlns="http://www.w3.org/2000/svg">
<rect width="378.141" height="347.914" rx="102" transform="matrix(0.999956 0.00918148 -0.00829424 0.999963 3.52893 0.748047)" fill="#327FF3"/>
<path d="M132.339 244.322V216.56V75.9463H148.68L148.68 244.322C148.68 244.322 147.969 269.921 114.222 287.948C80.4756 305.975 58.0964 272.805 82.6071 244.322C107.118 215.839 132.339 244.322 132.339 244.322Z" fill="white"/>
<path d="M271.426 244.322V216.56V75.9463H287.766L287.766 244.322C287.766 244.322 287.055 269.921 253.309 287.948C219.562 305.975 197.183 272.805 221.694 244.322C246.204 215.839 271.426 244.322 271.426 244.322Z" fill="white"/>
<path d="M287.766 77.2092H132.391V60.7988H287.766V77.2092Z" fill="white"/>
</svg>
