<svg width="382" height="353" viewBox="0 0 382 353" fill="none" xmlns="http://www.w3.org/2000/svg">
<rect width="378.141" height="347.914" rx="102" transform="matrix(0.999957 0.00918149 -0.00829411 0.999965 3.11182 0.798828)" fill="#327FF3"/>
<path d="M106.634 250.921V221.222V70.7988H122.975L122.975 250.921C122.975 250.921 122.264 278.306 88.5173 297.591C54.7707 316.876 32.3916 281.392 56.9022 250.921C81.4128 220.451 106.634 250.921 106.634 250.921Z" fill="white"/>
<path d="M215.379 253.446V223.747V73.3232H231.988L231.988 253.446C231.988 253.446 231.265 280.831 196.965 300.116C162.666 319.401 139.92 283.916 164.832 253.446C189.745 222.975 215.379 253.446 215.379 253.446Z" fill="white"/>
<path d="M334.736 88.4716H106.685V70.7988H334.736V88.4716Z" fill="white"/>
<path d="M318.396 253.446V223.747V73.3232H334.736L334.736 253.446C334.736 253.446 334.025 280.831 300.279 300.116C266.532 319.401 244.153 283.916 268.664 253.446C293.174 222.975 318.396 253.446 318.396 253.446Z" fill="white"/>
</svg>
